# Blender v2.74 (sub 0) OBJ File: 'map_tex4.blend'
# www.blender.org
o B1_Cube.048_Cube.000
v 33.448372 15.524131 20.025843
v 33.448372 15.524132 9.831771
v 33.448372 -0.412457 9.831768
v 44.642670 15.524132 9.831771
v 44.642670 -0.412457 9.831768
v 44.642670 15.524131 20.025843
v 44.642670 -0.412458 20.025841
v 33.448372 -0.412458 20.025841
v 44.642670 25.996286 20.025845
v 44.642670 25.996288 9.831772
v 33.448372 25.996288 9.831772
v 33.448372 25.996286 20.025845
v 33.448372 24.012163 9.831772
v 33.448372 24.012161 20.025845
v 33.448372 22.807804 19.266815
v 44.642670 24.012163 9.831772
v 44.642670 24.012161 20.025845
v 33.448372 16.728489 10.590800
v 33.448372 22.807806 10.590801
v 33.448372 16.728487 19.266813
v 23.290251 15.524131 20.025843
v 23.290249 -0.412458 20.025841
v 23.290249 -0.412457 9.831768
v 23.290251 15.524132 9.831771
v 13.174560 -0.412457 9.831768
v 13.174557 15.524131 20.025843
v 13.174557 24.012161 20.025845
v 5.916837 24.012161 20.025845
v 13.174560 -0.412458 20.025841
v 13.174560 25.996286 20.025845
v 23.290249 25.996286 20.025845
v 23.290249 25.996288 9.831772
v 23.290251 24.012161 20.025845
v 23.290251 24.012163 9.831772
v 23.290251 16.728487 19.266813
v 23.290251 22.807804 19.266815
v 13.174557 24.012163 9.831772
v 13.174557 15.524132 9.831771
v 13.174560 25.996288 9.831772
v 5.916837 24.012163 9.831772
v 23.290251 22.807806 10.590801
v 23.290251 16.728489 10.590800
v 5.916837 15.524131 20.025843
v 5.916837 15.524132 9.831771
v -7.556200 15.524132 9.831771
v 5.916839 -0.412458 20.025841
v 5.916839 -0.412457 9.831768
v -7.556196 -0.412457 9.831768
v -7.556196 -0.412458 20.025841
v -7.556200 15.524131 20.025843
v 28.369312 22.807804 19.266815
v 28.369312 16.728487 19.266813
v 28.369312 16.728489 10.590800
v 28.369312 22.807806 10.590801
vt 0.000800 0.766986
vt 0.037878 0.766986
vt 0.037878 0.729817
vt 0.076155 0.729817
vt 0.076155 0.766986
vt 0.039078 0.766986
vt 0.000800 0.728617
vt 0.037878 0.728617
vt 0.037878 0.691447
vt 0.039078 0.728617
vt 0.076155 0.728617
vt 0.076155 0.691447
vt 0.728073 0.037969
vt 0.765150 0.037969
vt 0.765150 0.000800
vt 0.689795 0.037969
vt 0.726873 0.037969
vt 0.726873 0.000800
vt 0.650318 0.461232
vt 0.650318 0.498401
vt 0.646733 0.498401
vt 0.851275 0.077539
vt 0.847690 0.095523
vt 0.851275 0.095523
vt 0.635964 0.461232
vt 0.635964 0.498401
vt 0.632379 0.498401
vt 0.879983 0.384493
vt 0.879983 0.421662
vt 0.842905 0.421662
vt 0.621610 0.461232
vt 0.621610 0.498401
vt 0.618025 0.498401
vt 0.420653 0.691447
vt 0.420653 0.728617
vt 0.383575 0.728617
vt 0.641948 0.498401
vt 0.645533 0.498401
vt 0.645533 0.461232
vt 0.726873 0.039169
vt 0.726873 0.076339
vt 0.689795 0.076339
vt 0.871613 0.095523
vt 0.875198 0.095523
vt 0.875198 0.077539
vt 0.616825 0.461232
vt 0.613240 0.498401
vt 0.616825 0.498401
vt 0.631179 0.461232
vt 0.627594 0.498401
vt 0.631179 0.498401
vt 0.918260 0.384493
vt 0.918260 0.421662
vt 0.881183 0.421662
vt 0.229265 0.691447
vt 0.229265 0.728617
vt 0.192188 0.728617
vt 0.688595 0.077539
vt 0.688595 0.114708
vt 0.670656 0.114708
vt 0.191788 0.728217
vt 0.191788 0.691047
vt 0.228865 0.691047
vt 0.689795 0.191447
vt 0.726873 0.191447
vt 0.726873 0.154277
vt 0.881183 0.460032
vt 0.918260 0.460032
vt 0.918260 0.422862
vt 0.637164 0.498401
vt 0.640748 0.498401
vt 0.640748 0.461232
vt 0.857259 0.095523
vt 0.860844 0.095523
vt 0.860844 0.077539
vt 0.622810 0.498401
vt 0.626394 0.498401
vt 0.626394 0.461232
vt 0.689795 0.229816
vt 0.726873 0.229816
vt 0.726873 0.192647
vt 0.661087 0.460032
vt 0.664672 0.460032
vt 0.664672 0.422862
vt 0.669456 0.077539
vt 0.669456 0.114708
vt 0.651518 0.114708
vt 0.625994 0.460832
vt 0.622410 0.460832
vt 0.622410 0.498001
vt 0.728073 0.191447
vt 0.765150 0.191447
vt 0.765150 0.154277
vt 0.846490 0.077539
vt 0.842905 0.095523
vt 0.846490 0.095523
vt 0.627194 0.498001
vt 0.630779 0.460832
vt 0.627194 0.460832
vt 0.612840 0.498001
vt 0.616425 0.460832
vt 0.612840 0.460832
vt 0.728073 0.229816
vt 0.765150 0.229816
vt 0.765150 0.192647
vt 0.728073 0.076339
vt 0.765150 0.076339
vt 0.765150 0.039169
vt 0.650318 0.115908
vt 0.650318 0.153077
vt 0.632379 0.153077
vt 0.631179 0.077539
vt 0.631179 0.114708
vt 0.613240 0.114708
vt 0.574963 0.613509
vt 0.592901 0.613509
vt 0.592901 0.576340
vt 0.650318 0.077539
vt 0.650318 0.114708
vt 0.632379 0.114708
vt 0.458930 0.691447
vt 0.458930 0.728617
vt 0.421853 0.728617
vt 0.383575 0.766986
vt 0.420653 0.766986
vt 0.420653 0.729817
vt 0.689795 0.421662
vt 0.726873 0.421662
vt 0.726873 0.384493
vt 0.458930 0.729817
vt 0.458930 0.766986
vt 0.421853 0.766986
vt 0.689795 0.786171
vt 0.707734 0.786171
vt 0.707734 0.768186
vt 0.765150 0.787371
vt 0.765150 0.805355
vt 0.747211 0.805355
vt 0.555824 0.613509
vt 0.573763 0.613509
vt 0.573763 0.576340
vt 0.574963 0.575140
vt 0.592901 0.575140
vt 0.592901 0.537970
vt 0.707734 0.787371
vt 0.707734 0.805355
vt 0.689795 0.805355
vt 0.594101 0.613509
vt 0.612040 0.613509
vt 0.612040 0.576340
vt 0.726873 0.768186
vt 0.726873 0.786171
vt 0.708934 0.786171
vt 0.554624 0.576340
vt 0.554624 0.613509
vt 0.536685 0.613509
vt 0.000400 0.691047
vt 0.000400 0.728217
vt 0.037478 0.691047
vt 0.038678 0.691047
vt 0.075755 0.691047
vt 0.038678 0.728217
vt 0.000400 0.729417
vt 0.000400 0.766586
vt 0.037478 0.729417
vt 0.038678 0.729417
vt 0.038678 0.766586
vt 0.075755 0.729417
vt 0.689395 0.000400
vt 0.689395 0.037569
vt 0.726473 0.000400
vt 0.727673 0.000400
vt 0.727673 0.037569
vt 0.764750 0.000400
vt 0.617625 0.460832
vt 0.621210 0.460832
vt 0.617625 0.498001
vt 0.856859 0.077139
vt 0.860444 0.077139
vt 0.856859 0.095123
vt 0.641548 0.460832
vt 0.645133 0.460832
vt 0.641548 0.498001
vt 0.689395 0.038769
vt 0.726473 0.038769
vt 0.689395 0.075939
vt 0.646333 0.460832
vt 0.649918 0.460832
vt 0.646333 0.498001
vt 0.727673 0.038769
vt 0.764750 0.038769
vt 0.727673 0.075939
vt 0.631979 0.460832
vt 0.631979 0.498001
vt 0.635564 0.460832
vt 0.842505 0.384093
vt 0.879583 0.384093
vt 0.842505 0.421262
vt 0.846090 0.077139
vt 0.842505 0.095123
vt 0.842505 0.077139
vt 0.659887 0.460032
vt 0.656302 0.460032
vt 0.659887 0.422862
vt 0.655102 0.460032
vt 0.651518 0.460032
vt 0.655102 0.422862
vt 0.880783 0.384093
vt 0.917860 0.384093
vt 0.880783 0.421262
vt 0.879983 0.460032
vt 0.842905 0.460032
vt 0.879983 0.422862
vt 0.631979 0.115508
vt 0.649918 0.115508
vt 0.631979 0.152677
vt 0.842505 0.422462
vt 0.879583 0.422462
vt 0.842505 0.459632
vt 0.880783 0.422462
vt 0.880783 0.459632
vt 0.917860 0.422462
vt 0.689395 0.153877
vt 0.689395 0.191047
vt 0.726473 0.153877
vt 0.636764 0.460832
vt 0.636764 0.498001
vt 0.640348 0.460832
vt 0.850875 0.077139
vt 0.847290 0.095123
vt 0.847290 0.077139
vt 0.669456 0.460032
vt 0.669456 0.422862
vt 0.665872 0.460032
vt 0.727673 0.153877
vt 0.727673 0.191047
vt 0.764750 0.153877
vt 0.660687 0.422462
vt 0.660687 0.459632
vt 0.664272 0.422462
vt 0.651118 0.077139
vt 0.669056 0.077139
vt 0.651118 0.114308
vt 0.665472 0.422462
vt 0.665472 0.459632
vt 0.669056 0.422462
vt 0.689395 0.192247
vt 0.689395 0.229416
vt 0.726473 0.192247
vt 0.871213 0.077139
vt 0.874798 0.077139
vt 0.871213 0.095123
vt 0.651118 0.422462
vt 0.654702 0.422462
vt 0.651118 0.459632
vt 0.655902 0.422462
vt 0.659487 0.422462
vt 0.655902 0.459632
vt 0.727673 0.192247
vt 0.727673 0.229416
vt 0.764750 0.192247
vt 0.383175 0.691047
vt 0.383175 0.728217
vt 0.420253 0.691047
vt 0.670256 0.077139
vt 0.688195 0.077139
vt 0.670256 0.114308
vt 0.612840 0.077139
vt 0.630779 0.077139
vt 0.612840 0.114308
vt 0.631979 0.077139
vt 0.631979 0.114308
vt 0.649918 0.077139
vt 0.574563 0.575940
vt 0.592501 0.575940
vt 0.574563 0.613109
vt 0.421453 0.691047
vt 0.458530 0.691047
vt 0.421453 0.728217
vt 0.383175 0.729417
vt 0.383175 0.766586
vt 0.420253 0.729417
vt 0.421453 0.729417
vt 0.421453 0.766586
vt 0.458530 0.729417
vt 0.689395 0.384093
vt 0.726473 0.384093
vt 0.689395 0.421262
vt 0.746812 0.786971
vt 0.746812 0.804955
vt 0.764750 0.786971
vt 0.689395 0.767786
vt 0.707334 0.767786
vt 0.689395 0.785771
vt 0.593701 0.575940
vt 0.593701 0.613109
vt 0.611640 0.575940
vt 0.536285 0.575940
vt 0.536285 0.613109
vt 0.554224 0.575940
vt 0.708534 0.767786
vt 0.726473 0.767786
vt 0.708534 0.785771
vt 0.555424 0.575940
vt 0.555424 0.613109
vt 0.573363 0.575940
vt 0.689395 0.786971
vt 0.707334 0.786971
vt 0.689395 0.804955
vt 0.574563 0.537570
vt 0.592501 0.537570
vt 0.574563 0.574740
vn -1.000000 -0.000000 0.000000
vn 0.000000 0.000000 -1.000000
vn 1.000000 -0.000000 0.000000
vn 0.000000 -0.000000 1.000000
vn 0.000000 -1.000000 -0.000000
vn 0.000000 1.000000 0.000000
s 1
f 1/1/1 2/2/1 3/3/1
f 4/4/2 5/5/2 3/6/2
f 4/7/3 6/8/3 7/9/3
f 6/10/4 1/11/4 8/12/4
f 8/13/5 3/14/5 5/15/5
f 9/16/6 10/17/6 11/18/6
f 12/19/1 11/20/1 13/21/1
f 1/22/1 14/23/1 15/24/1
f 11/25/2 10/26/2 16/27/2
f 13/28/2 16/29/2 4/30/2
f 10/31/3 9/32/3 17/33/3
f 16/34/3 17/35/3 6/36/3
f 12/37/4 14/38/4 17/39/4
f 17/40/4 14/41/4 1/42/4
f 2/43/1 18/44/1 19/45/1
f 14/46/1 13/47/1 19/48/1
f 2/49/1 1/50/1 20/51/1
f 21/52/3 22/53/3 23/54/3
f 24/55/2 23/56/2 25/57/2
f 26/58/4 27/59/4 28/60/4
f 26/61/4 29/62/4 22/63/4
f 22/64/5 29/65/5 25/66/5
f 30/67/6 31/68/6 32/69/6
f 31/70/3 33/71/3 34/72/3
f 21/73/3 35/74/3 36/75/3
f 32/76/2 34/77/2 37/78/2
f 34/79/2 24/80/2 38/81/2
f 39/82/1 37/83/1 27/84/1
f 27/85/6 37/86/6 40/87/6
f 30/88/4 27/89/4 33/90/4
f 27/91/4 26/92/4 21/93/4
f 24/94/3 34/95/3 41/96/3
f 34/97/3 33/98/3 36/99/3
f 21/100/3 24/101/3 42/102/3
f 43/103/6 44/104/6 45/105/6
f 40/106/1 44/107/1 43/108/1
f 37/109/2 38/110/2 44/111/2
f 25/112/5 29/113/5 46/114/5
f 26/115/4 43/116/4 46/117/4
f 38/118/2 25/119/2 47/120/2
f 45/121/1 48/122/1 49/123/1
f 47/124/5 46/125/5 49/126/5
f 43/127/4 50/128/4 49/129/4
f 44/130/2 47/131/2 48/132/2
f 15/133/4 51/134/4 52/135/4
f 19/136/2 18/137/2 53/138/2
f 19/139/6 54/140/6 51/141/6
f 52/142/5 35/143/5 42/144/5
f 52/145/4 51/146/4 36/147/4
f 20/148/5 52/149/5 53/150/5
f 54/151/2 53/152/2 42/153/2
f 51/154/6 54/155/6 41/156/6
f 8/157/1 1/158/1 3/159/1
f 2/160/2 4/161/2 3/162/2
f 5/163/3 4/164/3 7/165/3
f 7/166/4 6/167/4 8/168/4
f 7/169/5 8/170/5 5/171/5
f 12/172/6 9/173/6 11/174/6
f 14/175/1 12/176/1 13/177/1
f 20/178/1 1/179/1 15/180/1
f 13/181/2 11/182/2 16/183/2
f 2/184/2 13/185/2 4/186/2
f 16/187/3 10/188/3 17/189/3
f 4/190/3 16/191/3 6/192/3
f 9/193/4 12/194/4 17/195/4
f 6/196/4 17/197/4 1/198/4
f 13/199/1 2/200/1 19/201/1
f 15/202/1 14/203/1 19/204/1
f 18/205/1 2/206/1 20/207/1
f 24/208/3 21/209/3 23/210/3
f 38/211/2 24/212/2 25/213/2
f 43/214/4 26/215/4 28/216/4
f 21/217/4 26/218/4 22/219/4
f 23/220/5 22/221/5 25/222/5
f 39/223/6 30/224/6 32/225/6
f 32/226/3 31/227/3 34/228/3
f 33/229/3 21/230/3 36/231/3
f 39/232/2 32/233/2 37/234/2
f 37/235/2 34/236/2 38/237/2
f 30/238/1 39/239/1 27/240/1
f 28/241/6 27/242/6 40/243/6
f 31/244/4 30/245/4 33/246/4
f 33/247/4 27/248/4 21/249/4
f 42/250/3 24/251/3 41/252/3
f 41/253/3 34/254/3 36/255/3
f 35/256/3 21/257/3 42/258/3
f 50/259/6 43/260/6 45/261/6
f 28/262/1 40/263/1 43/264/1
f 40/265/2 37/266/2 44/267/2
f 47/268/5 25/269/5 46/270/5
f 29/271/4 26/272/4 46/273/4
f 44/274/2 38/275/2 47/276/2
f 50/277/1 45/278/1 49/279/1
f 48/280/5 47/281/5 49/282/5
f 46/283/4 43/284/4 49/285/4
f 45/286/2 44/287/2 48/288/2
f 20/289/4 15/290/4 52/291/4
f 54/292/2 19/293/2 53/294/2
f 15/295/6 19/296/6 51/297/6
f 53/298/5 52/299/5 42/300/5
f 35/301/4 52/302/4 36/303/4
f 18/304/5 20/305/5 53/306/5
f 41/307/2 54/308/2 42/309/2
f 36/310/6 51/311/6 41/312/6
