# Blender v2.72 (sub 0) OBJ File: ''
# www.blender.org
o Cube_Cube.001
v -1.000000 -1.000000 1.000000
v -1.000000 -1.000000 -1.000000
v 1.000000 -1.000000 -1.000000
v 1.000000 -1.000000 1.000000
v -1.000000 1.000000 1.000000
v -1.000000 1.000000 -1.000000
v 1.000000 1.000000 -1.000000
v 1.000000 1.000000 1.000000
v -1.000000 0.900000 -1.000000
v -1.000000 -0.900000 -1.000000
v -1.000000 -0.900000 1.000000
v -1.000000 0.900000 1.000000
v 1.000000 0.900000 -1.000000
v 1.000000 -0.900000 -1.000000
v 1.000000 0.900000 1.000000
v 1.000000 -0.900000 1.000000
v -0.900000 1.000000 -1.000000
v 0.900000 1.000000 -1.000000
v 0.900000 -1.000000 -1.000000
v -0.900000 -1.000000 -1.000000
v 0.900000 1.000000 1.000000
v -0.900000 1.000000 1.000000
v -0.900000 -1.000000 1.000000
v 0.900000 -1.000000 1.000000
v 0.900000 0.900000 -1.000000
v -0.900000 0.900000 -1.000000
v 0.900000 -0.900000 -1.000000
v -0.900000 -0.900000 -1.000000
v -0.900000 0.900000 1.000000
v 0.900000 0.900000 1.000000
v -0.900000 -0.900000 1.000000
v 0.900000 -0.900000 1.000000
v -1.000000 1.000000 0.900000
v -1.000000 1.000000 -0.900000
v -1.000000 -1.000000 -0.900000
v -1.000000 -1.000000 0.900000
v 1.000000 1.000000 -0.900000
v 1.000000 1.000000 0.900000
v 1.000000 -1.000000 0.900000
v 1.000000 -1.000000 -0.900000
v -1.000000 0.900000 -0.900000
v -1.000000 0.900000 0.900000
v -1.000000 -0.900000 -0.900000
v -1.000000 -0.900000 0.900000
v 1.000000 0.900000 0.900000
v 1.000000 0.900000 -0.900000
v 1.000000 -0.900000 0.900000
v 1.000000 -0.900000 -0.900000
v -0.900000 -1.000000 -0.900000
v -0.900000 -1.000000 0.900000
v 0.900000 -1.000000 -0.900000
v 0.900000 -1.000000 0.900000
v 0.900000 1.000000 -0.900000
v 0.900000 1.000000 0.900000
v -0.900000 1.000000 -0.900000
v -0.900000 1.000000 0.900000
v -0.900000 0.900000 -0.975194
v 0.900000 0.900000 -0.975194
v 0.900000 -0.900000 -0.975194
v -0.900000 -0.900000 -0.975194
v 0.900000 0.900000 0.975194
v -0.900000 0.900000 0.975194
v -0.900000 -0.900000 0.975194
v 0.900000 -0.900000 0.975194
v -0.975194 0.900000 0.900000
v -0.975194 0.900000 -0.900000
v -0.975194 -0.900000 -0.900000
v -0.975194 -0.900000 0.900000
v 0.975194 0.900000 -0.900000
v 0.975194 0.900000 0.900000
v 0.975194 -0.900000 0.900000
v 0.975194 -0.900000 -0.900000
v -0.900000 -0.975194 0.900000
v -0.900000 -0.975194 -0.900000
v 0.900000 -0.975194 -0.900000
v 0.900000 -0.975194 0.900000
v 0.900000 0.975194 0.900000
v 0.900000 0.975194 -0.900000
v -0.900000 0.975194 -0.900000
v -0.900000 0.975194 0.900000
vt 0.263198 0.277080
vt 0.263158 0.263963
vt 0.276276 0.263923
vt 0.249235 0.000040
vt 0.262353 0.000000
vt 0.262393 0.013118
vt 0.526356 0.013922
vt 0.526316 0.000805
vt 0.539433 0.000765
vt 0.512393 0.000040
vt 0.525511 0.000000
vt 0.525551 0.013118
vt 0.000040 0.277081
vt 0.000000 0.263963
vt 0.013118 0.263923
vt 0.526276 0.775551
vt 0.526316 0.788669
vt 0.513198 0.788709
vt 0.263963 0.526316
vt 0.263923 0.513198
vt 0.277040 0.513158
vt 0.276316 0.277040
vt 0.000000 0.000805
vt 0.013118 0.000765
vt 0.013158 0.013882
vt 0.249276 0.013158
vt 0.527121 0.263158
vt 0.527080 0.250040
vt 0.540198 0.250000
vt 0.539474 0.013882
vt 0.263158 0.000805
vt 0.276276 0.000765
vt 0.276316 0.013882
vt 0.512434 0.013158
vt 0.250000 0.249276
vt 0.263118 0.249235
vt 0.263158 0.262353
vt 0.513158 0.249276
vt 0.526276 0.249235
vt 0.526316 0.262353
vt 0.000805 0.526316
vt 0.000765 0.513198
vt 0.013882 0.513158
vt 0.013158 0.277040
vt 0.525511 0.526316
vt 0.525551 0.539433
vt 0.512434 0.539474
vt 0.513158 0.775591
vt 0.000765 0.250040
vt 0.013882 0.250000
vt 0.013923 0.263118
vt 0.000040 0.013923
vt 0.250040 0.262393
vt 0.263923 0.250040
vt 0.277040 0.250000
vt 0.277080 0.263118
vt 0.263198 0.013923
vt 0.513198 0.262393
vt 0.512434 0.276316
vt 0.512393 0.263198
vt 0.525511 0.263158
vt 0.775591 0.013158
vt 0.775551 0.000040
vt 0.788669 0.000000
vt 0.249276 0.276316
vt 0.249235 0.263198
vt 0.262353 0.263158
vt 0.277040 0.776316
vt 0.277080 0.789433
vt 0.263963 0.789474
vt 0.513198 0.525551
vt 0.513158 0.512434
vt 0.526276 0.512393
vt 0.277080 0.526276
vt 0.525551 0.276276
vt 0.776356 0.262393
vt 0.776316 0.249276
vt 0.789434 0.249235
vt 0.540238 0.263118
vt 0.788709 0.013118
vt 0.250040 0.525551
vt 0.250000 0.512434
vt 0.263118 0.512393
vt 0.013923 0.526276
vt 0.262393 0.276276
vt 0.276276 0.527080
vt 0.276316 0.540198
vt 0.263198 0.540238
vt 0.512393 0.526356
vt 0.263923 0.776356
vt 0.526316 0.500724
vt 0.762434 0.500000
vt 0.763158 0.736118
vt 0.809365 0.027040
vt 0.808641 0.263158
vt 0.805387 0.263148
vt 0.790282 0.263872
vt 0.791006 0.499990
vt 0.787752 0.500000
vt 0.798155 0.263158
vt 0.797430 0.027040
vt 0.800684 0.027030
vt 0.807644 0.500000
vt 0.806919 0.263882
vt 0.810173 0.263872
vt 0.000000 0.527040
vt 0.236118 0.526316
vt 0.236842 0.762434
vt 0.802133 0.263158
vt 0.801409 0.027040
vt 0.804663 0.027030
vt 0.812619 0.027030
vt 0.813344 0.263148
vt 0.810090 0.263158
vt 0.802217 0.263872
vt 0.802941 0.499990
vt 0.799687 0.500000
vt 0.783774 0.500000
vt 0.783050 0.263882
vt 0.786303 0.263872
vt 0.763158 0.972960
vt 0.527040 0.973684
vt 0.526316 0.737567
vt 0.778347 0.263872
vt 0.779071 0.499990
vt 0.775817 0.500000
vt 0.237567 0.762444
vt 0.236842 0.526326
vt 0.240096 0.526316
vt 0.782325 0.263872
vt 0.783050 0.499990
vt 0.779796 0.500000
vt 0.258455 0.526316
vt 0.259180 0.762434
vt 0.255926 0.762444
vt 1.000000 0.972960
vt 0.763882 0.973684
vt 0.763158 0.737567
vt 0.806195 0.500000
vt 0.241545 0.762444
vt 0.240820 0.526326
vt 0.244074 0.526316
vt 0.771839 0.500000
vt 0.771115 0.263882
vt 0.774369 0.263872
vt 0.262433 0.526316
vt 0.263158 0.762434
vt 0.259904 0.762444
vt 0.763882 0.500000
vt 1.000000 0.500724
vt 0.245523 0.762444
vt 0.244799 0.526326
vt 0.248053 0.526316
vt 0.795709 0.500000
vt 0.794985 0.263882
vt 0.798238 0.263872
vt 0.763158 0.263882
vt 0.766412 0.263872
vt 0.794176 0.263158
vt 0.793452 0.027040
vt 0.796706 0.027030
vt 0.762434 0.263158
vt 0.763158 0.499276
vt 0.527040 0.500000
vt 0.770390 0.263872
vt 0.771115 0.499990
vt 0.767861 0.500000
vt 0.794260 0.263872
vt 0.794984 0.499990
vt 0.791731 0.500000
vt 0.254477 0.526316
vt 0.255201 0.762434
vt 0.251947 0.762444
vt 0.792728 0.027030
vt 0.793452 0.263148
vt 0.790198 0.263158
vt 0.000805 0.263158
vt 0.263963 0.263158
vt 0.526316 0.525511
vt 0.789474 0.262353
vt 0.263158 0.525511
vt 0.263158 0.527121
vt 0.527040 0.736842
vt 0.806111 0.027030
vt 0.787028 0.263882
vt 0.801409 0.263148
vt 0.810898 0.499990
vt 0.000724 0.763158
vt 0.798963 0.263882
vt 0.787028 0.499990
vt 0.762434 0.736842
vt 0.775093 0.263882
vt 0.240820 0.762434
vt 0.779071 0.263882
vt 0.255201 0.526326
vt 0.999276 0.736842
vt 0.803666 0.263872
vt 0.244799 0.762434
vt 0.775093 0.499990
vt 0.259180 0.526326
vt 0.248777 0.762434
vt 0.798963 0.499990
vt 0.767136 0.499990
vt 0.797430 0.263148
vt 0.526316 0.263882
vt 0.767136 0.263882
vt 0.791006 0.263882
vt 0.251223 0.526326
vt 0.789474 0.027040
vn -1.000000 0.000000 0.000000
vn 0.000000 0.000000 -1.000000
vn 1.000000 0.000000 0.000000
vn 0.000000 0.000000 1.000000
vn 0.000000 -1.000000 0.000000
vn 0.000000 1.000000 0.000000
s off
f 10/1/1 2/2/1 35/3/1
f 14/4/2 3/5/2 19/6/2
f 16/7/3 4/8/3 39/9/3
f 11/10/4 1/11/4 23/12/4
f 19/13/5 3/14/5 40/15/5
f 17/16/6 6/17/6 34/18/6
f 6/19/1 9/20/1 41/21/1
f 9/20/1 10/1/1 43/22/1
f 7/23/2 13/24/2 25/25/2
f 13/24/2 14/4/2 27/26/2
f 8/27/3 15/28/3 45/29/3
f 15/28/3 16/7/3 47/30/3
f 5/31/4 12/32/4 29/33/4
f 12/32/4 11/10/4 31/34/4
f 28/35/2 20/36/2 2/37/2
f 27/26/2 19/6/2 20/36/2
f 32/38/4 24/39/4 4/40/4
f 31/34/4 23/12/4 24/39/4
f 2/41/5 20/42/5 49/43/5
f 20/42/5 19/13/5 51/44/5
f 7/45/6 18/46/6 53/47/6
f 18/46/6 17/16/6 55/48/6
f 17/49/2 26/50/2 9/51/2
f 18/52/2 25/25/2 26/50/2
f 26/50/2 28/35/2 10/53/2
f 21/54/4 30/55/4 15/56/4
f 22/57/4 29/33/4 30/55/4
f 30/55/4 32/38/4 16/58/4
f 44/59/1 36/60/1 1/61/1
f 43/22/1 35/3/1 36/60/1
f 48/62/3 40/63/3 3/64/3
f 47/30/3 39/9/3 40/63/3
f 52/65/5 39/66/5 4/67/5
f 51/44/5 40/15/5 39/66/5
f 56/68/6 33/69/6 5/70/6
f 55/48/6 34/18/6 33/69/6
f 33/71/1 42/72/1 12/73/1
f 34/74/1 41/21/1 42/72/1
f 42/72/1 44/59/1 11/75/1
f 37/76/3 46/77/3 13/78/3
f 38/79/3 45/29/3 46/77/3
f 46/77/3 48/62/3 14/80/3
f 36/81/5 50/82/5 23/83/5
f 35/84/5 49/43/5 50/82/5
f 50/82/5 52/65/5 24/85/5
f 38/86/6 54/87/6 21/88/6
f 37/89/6 53/47/6 54/87/6
f 54/87/6 56/68/6 22/90/6
f 58/91/2 59/92/2 60/93/2
f 58/94/5 57/95/5 26/96/5
f 59/97/1 58/98/1 25/99/1
f 60/100/6 59/101/6 27/102/6
f 57/103/3 60/104/3 28/105/3
f 62/106/4 63/107/4 64/108/4
f 62/109/5 61/110/5 30/111/5
f 63/112/3 62/113/3 29/114/3
f 64/115/6 63/116/6 31/117/6
f 61/118/1 64/119/1 32/120/1
f 66/121/1 67/122/1 68/123/1
f 66/124/5 65/125/5 42/126/5
f 67/127/4 66/128/4 41/129/4
f 68/130/6 67/131/6 43/132/6
f 65/133/2 68/134/2 44/135/2
f 70/136/3 71/137/3 72/138/3
f 70/104/5 69/139/5 46/116/5
f 71/140/2 70/141/2 45/142/2
f 72/143/6 71/144/6 47/145/6
f 69/146/4 72/147/4 48/148/4
f 74/93/5 75/149/5 76/150/5
f 74/151/3 73/152/3 50/153/3
f 75/154/4 74/155/4 49/156/4
f 76/149/1 75/157/1 51/158/1
f 73/159/2 76/160/2 52/161/2
f 78/162/6 79/163/6 80/164/6
f 78/165/1 77/166/1 54/167/1
f 79/168/4 78/169/4 53/170/4
f 80/171/3 79/172/3 55/173/3
f 77/174/2 80/175/2 56/176/2
f 43/22/1 10/1/1 35/3/1
f 27/26/2 14/4/2 19/6/2
f 47/30/3 16/7/3 39/9/3
f 31/34/4 11/10/4 23/12/4
f 51/44/5 19/13/5 40/15/5
f 55/48/6 17/16/6 34/18/6
f 34/74/1 6/19/1 41/21/1
f 41/21/1 9/20/1 43/22/1
f 18/52/2 7/23/2 25/25/2
f 25/25/2 13/24/2 27/26/2
f 38/79/3 8/27/3 45/29/3
f 45/29/3 15/28/3 47/30/3
f 22/57/4 5/31/4 29/33/4
f 29/33/4 12/32/4 31/34/4
f 10/53/2 28/35/2 2/37/2
f 28/35/2 27/26/2 20/36/2
f 16/58/4 32/38/4 4/40/4
f 32/38/4 31/34/4 24/39/4
f 35/84/5 2/41/5 49/43/5
f 49/43/5 20/42/5 51/44/5
f 37/89/6 7/45/6 53/47/6
f 53/47/6 18/46/6 55/48/6
f 6/177/2 17/49/2 9/51/2
f 17/49/2 18/52/2 26/50/2
f 9/51/2 26/50/2 10/53/2
f 8/178/4 21/54/4 15/56/4
f 21/54/4 22/57/4 30/55/4
f 15/56/4 30/55/4 16/58/4
f 11/75/1 44/59/1 1/61/1
f 44/59/1 43/22/1 36/60/1
f 14/80/3 48/62/3 3/64/3
f 48/62/3 47/30/3 40/63/3
f 24/85/5 52/65/5 4/67/5
f 52/65/5 51/44/5 39/66/5
f 22/90/6 56/68/6 5/70/6
f 56/68/6 55/48/6 33/69/6
f 5/179/1 33/71/1 12/73/1
f 33/71/1 34/74/1 42/72/1
f 12/73/1 42/72/1 11/75/1
f 7/180/3 37/76/3 13/78/3
f 37/76/3 38/79/3 46/77/3
f 13/78/3 46/77/3 14/80/3
f 1/181/5 36/81/5 23/83/5
f 36/81/5 35/84/5 50/82/5
f 23/83/5 50/82/5 24/85/5
f 8/182/6 38/86/6 21/88/6
f 38/86/6 37/89/6 54/87/6
f 21/88/6 54/87/6 22/90/6
f 57/183/2 58/91/2 60/93/2
f 25/184/5 58/94/5 26/96/5
f 27/185/1 59/97/1 25/99/1
f 28/186/6 60/100/6 27/102/6
f 26/187/3 57/103/3 28/105/3
f 61/188/4 62/106/4 64/108/4
f 29/96/5 62/109/5 30/111/5
f 31/94/3 63/112/3 29/114/3
f 32/189/6 64/115/6 31/117/6
f 30/190/1 61/118/1 32/120/1
f 65/191/1 66/121/1 68/123/1
f 41/192/5 66/124/5 42/126/5
f 43/193/4 67/127/4 41/129/4
f 44/194/6 68/130/6 43/132/6
f 42/195/2 65/133/2 44/135/2
f 69/196/3 70/136/3 72/138/3
f 45/197/5 70/104/5 46/116/5
f 47/198/2 71/140/2 45/142/2
f 48/199/6 72/143/6 47/145/6
f 46/200/4 69/146/4 48/148/4
f 73/196/5 74/93/5 76/150/5
f 49/201/3 74/151/3 50/153/3
f 51/202/4 75/154/4 49/156/4
f 52/203/1 76/149/1 51/158/1
f 50/204/2 73/159/2 52/161/2
f 77/205/6 78/162/6 80/164/6
f 53/206/1 78/165/1 54/167/1
f 55/207/4 79/168/4 53/170/4
f 56/208/3 80/171/3 55/173/3
f 54/209/2 77/174/2 56/176/2
